<?xml version="1.0" encoding="UTF-8"?>
<svg width="37px" height="46px" viewBox="0 0 37 46" version="1.1" xmlns="http://www.w3.org/2000/svg" xmlns:xlink="http://www.w3.org/1999/xlink">
    <!-- Generator: Sketch 48.2 (47327) - http://www.bohemiancoding.com/sketch -->
    <title>Group 6</title>
    <desc>Created with Sketch.</desc>
    <defs>
        <polygon id="path-1" points="36.2756805 0.0722926829 4.63414634e-05 0.0722926829 4.63414634e-05 44.9511268 36.2756805 44.9511268 36.2756805 0.0722926829"></polygon>
    </defs>
    <g id="nut-copy-3" stroke="none" stroke-width="1" fill="none" fill-rule="evenodd" transform="translate(-36.000000, -20.000000)">
        <g id="Page-1" transform="translate(36.000000, 19.848938)">
            <g id="Group-6" transform="translate(0.000000, 0.391122)">
                <mask id="mask-2" fill="white">
                    <use xlink:href="#path-1"></use>
                </mask>
                <g id="Clip-5"></g>
                <path d="M26.3739,36.6332976 C24.3205098,36.6332976 22.5549,36.4502488 21.1132171,36.0901756 L21.483022,33.5427854 C21.4932171,33.5006146 21.4959976,33.4561268 21.502022,33.4130293 L21.515461,33.3212732 C21.517778,33.3027366 21.5163878,33.2846634 21.517778,33.2661268 C21.5182415,33.2508341 21.5224122,33.2369317 21.5224122,33.2211756 C21.5224122,33.2146878 21.5205585,33.2086634 21.5205585,33.2021756 C21.5196317,33.1725171 21.5159244,33.1437854 21.5112902,33.1150537 C21.420461,31.9245415 19.8462415,31.2206146 17.9800707,30.9467366 C18.1969488,28.0017366 18.6988268,25.6925415 19.3031195,23.9014439 C21.0849488,24.8268829 24.9248024,24.918639 26.3405341,24.918639 C27.774339,24.918639 31.6952902,24.8245659 33.4456073,23.8643707 C34.2551927,26.2699561 34.8854366,29.6153463 34.8854366,34.2193707 C34.8854366,34.7513707 32.847339,36.6332976 26.3739,36.6332976 Z M13.4951439,42.9816146 C13.4946805,42.9792976 13.4932902,42.9774439 13.4932902,42.9751268 C13.4923634,42.9704927 13.4932902,42.9653951 13.4923634,42.960761 L12.338461,35.0150537 C13.3760463,35.4307366 14.7635098,35.6300049 16.1013878,35.6300049 C17.4392659,35.6300049 18.8267293,35.4307366 19.864778,35.0150537 L18.7108756,42.960761 C18.7099488,42.9653951 18.7108756,42.9704927 18.7099488,42.9751268 C18.7099488,42.9774439 18.7080951,42.9792976 18.7080951,42.9816146 C18.5143878,43.1915415 17.588022,43.5608829 16.1013878,43.5608829 C14.6152171,43.5608829 13.6888512,43.1915415 13.4951439,42.9816146 Z M7.50411951,39.6751512 C3.71153415,39.6751512 1.39029024,38.5421024 1.39029024,37.9252976 L1.39029024,35.5702244 C2.81668049,36.4613707 5.62543659,36.7384927 7.50411951,36.7384927 C8.8146561,36.7384927 10.0552171,36.6235659 11.1372902,36.4164195 L11.5376805,39.1723463 C10.3990707,39.4972 8.9856561,39.6751512 7.50411951,39.6751512 Z M2.67302195,13.4129805 L4.20321707,12.2081024 C4.59016829,11.903639 4.81260732,11.4462488 4.81260732,10.953639 C4.81260732,10.8984927 4.83392439,10.8470537 4.87331463,10.8076634 L5.15599756,10.5245171 C5.45768049,10.2232976 5.62404634,9.8224439 5.62404634,9.39563902 L5.62404634,8.99617561 C6.19682683,9.16763902 6.87202195,9.2427122 7.50411951,9.2427122 C8.13668049,9.2427122 8.81187561,9.16763902 9.3846561,8.99617561 L9.3846561,9.39563902 C9.3846561,9.8224439 9.55055854,10.2232976 9.85177805,10.5240537 L10.1363146,10.8085902 C10.1752415,10.8470537 10.1965585,10.8989561 10.1965585,10.953639 C10.1965585,11.4467122 10.4180707,11.9041024 10.805022,12.207639 L12.3352171,13.4129805 C12.8996561,13.8573951 13.2296073,14.5515902 13.218022,15.266639 L13.1582415,18.1792 C13.1452659,18.2260049 13.1359976,18.2746634 13.1332171,18.325639 C12.9158756,18.6759805 11.0538756,19.4716634 7.50411951,19.4716634 C3.95436341,19.4716634 2.09282683,18.6759805 1.87548537,18.325639 C1.87270488,18.2737366 1.86250976,18.2246146 1.84953415,18.1764195 L1.79021707,15.2698829 C1.77909512,14.5515902 2.10904634,13.8573951 2.67302195,13.4129805 Z M7.50411951,1.4624439 C8.19877805,1.4624439 8.70899756,1.56207805 9.0333878,1.66588293 C8.70899756,1.7696878 8.19877805,1.86885854 7.50411951,1.86885854 C6.80946098,1.86885854 6.29970488,1.7696878 5.97485122,1.66588293 C6.29970488,1.56207805 6.80946098,1.4624439 7.50411951,1.4624439 Z M5.62404634,5.24529756 C6.19682683,5.41676098 6.87202195,5.49137073 7.50411951,5.49137073 C8.13668049,5.49137073 8.81187561,5.41676098 9.3846561,5.24529756 L9.3846561,7.4979561 C9.18307073,7.62446829 8.5583878,7.85246829 7.50411951,7.85246829 C6.45031463,7.85246829 5.82563171,7.62446829 5.62404634,7.4979561 L5.62404634,5.24529756 Z M9.3846561,3.74661463 C9.18307073,3.87359024 8.5583878,4.10112683 7.50411951,4.10112683 C6.45031463,4.10112683 5.82563171,3.87359024 5.62404634,3.74661463 L5.62404634,3.01302927 C6.19682683,3.18449268 6.87202195,3.25910244 7.50411951,3.25910244 C8.13668049,3.25910244 8.81187561,3.18449268 9.3846561,3.01302927 L9.3846561,3.74661463 Z M12.9589732,27.8664195 C12.9279244,27.937322 12.9070707,28.013322 12.9019732,28.0944195 C12.6749,28.4294683 10.8759244,29.1820537 7.50411951,29.1820537 C4.13277805,29.1820537 2.33380244,28.4294683 2.10719268,28.0944195 C2.10163171,28.0096146 2.0793878,27.9294439 2.04602195,27.855761 L1.88568049,19.9577854 C3.40104634,20.6408585 5.82424146,20.8619073 7.50411951,20.8619073 C9.18353415,20.8619073 11.6062659,20.6408585 13.1216317,19.9582488 L12.9589732,27.8664195 Z M10.6919488,33.1150537 C10.6873146,33.1437854 10.6836073,33.1725171 10.6826805,33.2021756 C10.6826805,33.2086634 10.6808268,33.2146878 10.6808268,33.2211756 C10.6808268,33.2369317 10.6849976,33.2508341 10.685461,33.2661268 C10.6868512,33.2846634 10.685461,33.3027366 10.687778,33.3212732 L10.7012171,33.4130293 C10.7072415,33.4561268 10.710022,33.5006146 10.7202171,33.5427854 L10.9375585,35.0405415 C9.92824146,35.2388829 8.75394878,35.3477854 7.50411951,35.3477854 C4.1819,35.3477854 2.33843659,34.6508098 1.93804634,34.2740537 C2.08124146,33.9756146 2.16280244,33.6498341 2.15677805,33.3096878 L2.08355854,29.6978341 C3.54933902,30.3582 5.88448537,30.5722976 7.50411951,30.5722976 C9.12236341,30.5722976 11.4547293,30.3586634 12.9209732,29.6996878 L12.889461,31.2359073 C11.6572415,31.6047854 10.7600707,32.2239073 10.6919488,33.1150537 Z M20.1279976,33.1993951 L20.1242902,33.2267366 C19.9936073,33.5223951 18.633022,34.239761 16.1013878,34.239761 C13.5938512,34.239761 12.2355829,33.5358341 12.0835829,33.2577854 L12.0775585,33.2179317 C12.2017537,32.9241268 13.5632659,32.2021268 16.1013878,32.2021268 C18.6538756,32.2021268 20.016778,32.9324683 20.1279976,33.1993951 Z M32.6564122,22.7294683 C31.8496073,23.0747122 29.6822171,23.5283951 26.3405341,23.5283951 C22.9988512,23.5283951 20.8309976,23.0747122 20.0246561,22.7294683 C20.8309976,22.3842244 22.9988512,21.9305415 26.3405341,21.9305415 C29.6822171,21.9305415 31.8496073,22.3842244 32.6564122,22.7294683 Z M22.8171927,18.2510293 C22.967339,18.1615902 23.0785585,18.0188585 23.1276805,17.8511024 C23.6995341,15.907078 25.1129488,14.4908829 25.1263878,14.4774439 C25.2593878,14.3472244 25.3339976,14.1683463 25.3339976,13.9820537 L25.3339976,13.8629561 C25.6468024,13.879639 25.980461,13.8893707 26.341461,13.8893707 C26.7274854,13.8893707 27.082461,13.8782488 27.413339,13.8587854 L27.413339,13.9820537 C27.413339,14.1674195 27.4884122,14.3462976 27.620022,14.4765171 C27.6343878,14.4908829 29.0482659,15.907078 29.6201195,17.8511024 C29.6697049,18.0188585 29.780461,18.1615902 29.9306073,18.2510293 C29.9542415,18.2653951 31.093778,18.985078 32.2736317,21.1422732 C30.3226561,20.6019317 27.5074122,20.5402976 26.3405341,20.5402976 C25.1935829,20.5402976 22.4552659,20.6005415 20.5089244,21.1158585 C21.6785829,18.9934195 22.7981927,18.263078 22.8171927,18.2510293 Z M23.5683878,11.0722732 C24.2306073,11.2548585 25.1551195,11.3475415 26.341461,11.3475415 C27.5227049,11.3475415 28.4444366,11.2557854 29.1061927,11.0745902 C29.1173146,11.5384683 29.0575341,11.9648098 29.0176805,12.1881756 C28.6738268,12.3183951 27.7275341,12.4991268 26.341461,12.4991268 C24.9521439,12.4991268 24.004461,12.3174683 23.6619976,12.1872488 C23.6221439,11.9712976 23.5591195,11.5509805 23.5683878,11.0722732 Z M30.8801439,17.2208585 C30.3152415,15.5006634 29.2535585,14.2035659 28.8035829,13.7058585 L28.8035829,13.6882488 C29.7711927,13.4848098 30.2916073,13.1265902 30.3513878,12.6145171 C30.4111683,12.332761 30.6363878,11.103322 30.356022,9.9837122 C30.356022,9.97907805 30.3574122,9.97490732 30.3574122,9.97027317 C30.3574122,9.05641951 29.0060951,8.59300488 26.341461,8.59300488 C23.8000951,8.59300488 22.4561927,9.01563902 22.3370951,9.84746829 C22.0210463,11.0699561 22.2652659,12.3272 22.3319976,12.6214683 C22.3968756,13.1414195 22.9376805,13.5024195 23.9437537,13.7026146 L23.9437537,13.7058585 C23.493778,14.2035659 22.4320951,15.5006634 21.8676561,17.2208585 C20.8958756,17.9516634 17.3025585,21.2766634 16.5949244,30.8211512 C16.4299488,30.8151268 16.2654366,30.8118829 16.1013878,30.8118829 C15.4938512,30.8118829 14.8770463,30.8545171 14.2866561,30.9379317 L14.6082659,15.2921268 C14.626339,14.1423951 14.0985098,13.0315902 13.1953146,12.3207122 L11.6651195,11.1153707 C11.6150707,11.0764439 11.5868024,11.0175902 11.5868024,10.953639 C11.5868024,10.5272976 11.4204366,10.1264439 11.1192171,9.82522439 L10.8346805,9.5406878 C10.7962171,9.50222439 10.7749,9.45078537 10.7749,9.39563902 L10.7749,1.66588293 C10.7749,0.489736585 9.01299756,0.0722 7.50411951,0.0722 C5.99524146,0.0722 4.23380244,0.489736585 4.23380244,1.66588293 L4.23380244,9.39563902 C4.23380244,9.45078537 4.21248537,9.50222439 4.17309512,9.54161463 L3.88994878,9.82476098 C3.58826585,10.1259805 3.42236341,10.5272976 3.42236341,10.953639 C3.42236341,11.0175902 3.39363171,11.0764439 3.34358293,11.1158341 L1.8133878,12.3207122 C0.910192683,13.0315902 0.3819,14.1423951 0.399973171,15.2949073 L0.766534146,33.335639 C0.770241463,33.5312 0.69887561,33.7184195 0.566802439,33.8630049 C0.201168293,34.2615415 4.63414634e-05,34.7782488 4.63414634e-05,35.3185902 L4.63414634e-05,37.9252976 C4.63414634e-05,37.9772 0.00699756098,38.0272488 0.0171926829,38.0759073 C0.199778049,40.0380049 3.86909512,41.0653951 7.50411951,41.0653951 C9.0333878,41.0653951 10.5116805,40.8874439 11.7392659,40.5602732 L12.1164854,43.1600293 C12.1169488,43.1642 12.1192659,43.1669805 12.1201927,43.1702244 C12.2314122,44.3978098 14.1721927,44.9511268 16.1013878,44.9511268 C18.0305829,44.9511268 19.9718268,44.3978098 20.0830463,43.1702244 C20.0839732,43.1669805 20.0862902,43.1642 20.0867537,43.1600293 L20.913022,37.4702244 C22.4409,37.8367854 24.2709244,38.0235415 26.3739,38.0235415 C34.2060707,38.0235415 36.2756805,35.5350049 36.2756805,34.2193707 C36.2756805,22.0329561 31.9617537,18.0318341 30.8801439,17.2208585 Z" id="Fill-4" fill="#000000" mask="url(#mask-2)"></path>
            </g>
        </g>
    </g>
</svg>