<?xml version="1.0" encoding="UTF-8"?>
<svg width="47px" height="35px" viewBox="0 0 47 35" version="1.1" xmlns="http://www.w3.org/2000/svg" xmlns:xlink="http://www.w3.org/1999/xlink">
    <!-- Generator: Sketch 48.2 (47327) - http://www.bohemiancoding.com/sketch -->
    <title>Page 1</title>
    <desc>Created with Sketch.</desc>
    <defs></defs>
    <g id="nut-copy-2" stroke="none" stroke-width="1" fill="none" fill-rule="evenodd" transform="translate(-32.000000, -27.000000)">
        <g id="Page-1" transform="translate(32.000000, 27.000000)">
            <path d="M46.6316204,14.4454728 C41.475766,7.22161845 34.474135,9.24216214 32.8081447,9.85955049 C32.3057466,9.55382233 31.7499602,9.33524951 31.1581252,9.21569612 C31.524999,6.69321068 30.3545621,4.18852136 28.1359796,2.8570068 C26.6803485,1.98271553 24.9705524,1.72809417 23.3228146,2.14014272 C21.6750767,2.55219126 20.2865233,3.58025922 19.412232,5.03680291 C19.3031738,5.21887087 19.2036981,5.40641456 19.1128922,5.59806505 C18.6698146,5.37264757 18.1911447,5.21065728 17.6882903,5.11985146 C16.338067,4.87846311 14.9768922,5.17506505 13.8520864,5.95672524 C13.6581544,6.0917932 13.4779117,6.24146311 13.3067951,6.39980291 C7.38205728,4.32632718 2.3708534,7.23895825 2.16003786,7.36353107 C1.92549417,7.50316214 1.79590194,7.76873495 1.83058155,8.0397835 C1.86571748,8.31083204 2.05782427,8.53488058 2.32065922,8.61017184 C7.6134068,10.1324243 8.58397961,13.5994728 8.72680485,14.2912398 C8.4169699,15.3859291 8.33757184,16.5413078 8.52283398,17.6971427 C8.88560097,19.9631816 10.1856301,21.8513951 11.9647854,23.0455602 C10.6556301,24.3770748 7.35011553,28.3387641 8.14683398,33.7410262 C8.18927087,34.0298709 8.41103786,34.2575699 8.69760097,34.3118709 C8.73958155,34.3200845 8.78201845,34.323735 8.82399903,34.323735 C9.0663,34.323735 9.29582427,34.1936864 9.41994078,33.9783078 C9.48245534,33.8683369 11.0015136,31.3043272 15.0092903,31.8966184 C20.3175524,32.6746282 22.8943388,29.2691816 23.6864942,26.9488417 C23.7572223,26.9511233 23.8274942,26.9575117 23.8982223,26.9575117 C24.2655524,26.9575117 24.6356204,26.9283078 25.005232,26.8699 C26.2003097,26.6796184 27.3045816,26.1890845 28.2391058,25.4452981 C29.3556981,27.0606379 31.2179019,28.1229291 33.325601,28.1229291 C36.7342417,28.1229291 39.5067854,25.3494728 39.5067854,21.9417447 C39.5067854,20.6946476 39.1326107,19.5351621 38.4951447,18.5627641 C39.4730184,18.2095796 40.8063583,17.3526282 41.584368,15.253599 C41.6874942,14.9757058 41.8499408,14.8064146 42.1118631,14.7046573 C43.0263097,14.3519291 44.8346689,14.9747932 45.7609796,15.4511816 C46.0416107,15.5962883 46.3856689,15.5292107 46.5919214,15.2910165 C46.7986301,15.0514534 46.8150573,14.7023757 46.6316204,14.4454728" id="Fill-1" fill="#DD4C51"></path>
            <path d="M34.2622243,20.708565 C33.9628845,20.6378369 33.6475738,20.682099 33.3797194,20.8335942 C33.3546223,20.5274097 33.214535,20.2417592 32.9877485,20.0336816 C33.2715738,19.9150408 33.5001854,19.6932738 33.6274961,19.4135553 C33.8287291,19.6471864 34.1098165,19.7959437 34.4155447,19.8306233 C34.2558359,20.0934583 34.2010786,20.4074 34.2622243,20.708565 M33.4089233,17.8730505 C32.9142825,17.9433223 32.5172922,18.3024388 32.3931757,18.7797398 C31.9126806,18.8883417 31.5412437,19.2730117 31.455001,19.7658272 C31.3692146,20.2581864 31.5873311,20.7464388 32.0039427,21.0115553 C31.9578553,21.5025456 32.2097388,21.9743709 32.6514476,22.2089146 C32.8335155,22.3051961 33.0310981,22.3526524 33.226399,22.3526524 C33.5061175,22.3526524 33.7817291,22.2568272 34.0057777,22.0720214 C34.4593505,22.2673223 34.9854767,22.1737786 35.3445932,21.8260699 C35.7037097,21.4783612 35.8136806,20.9540602 35.6334379,20.495468 C35.9587874,20.1254 36.0327097,19.5960796 35.8123117,19.1466136 C35.5932825,18.6980602 35.1374282,18.4270117 34.636399,18.4607786 C34.3849718,18.036866 33.9021951,17.8050602 33.4089233,17.8730505" id="Fill-4" fill="#2D2319"></path>
            <path d="M24.0926107,3.54389126 C24.2486689,3.82406602 24.5078534,4.0326 24.8149505,4.12477476 C24.5963777,4.36023107 24.4781932,4.67143495 24.4854942,4.99222136 C24.3212223,4.91556117 24.1437175,4.87723107 23.9662126,4.87723107 C23.8288631,4.87723107 23.6915136,4.90050291 23.5596398,4.94613398 C23.5979699,4.62808544 23.5112709,4.30684272 23.3164262,4.05130874 C23.6317369,3.99016311 23.9100864,3.80809515 24.0926107,3.54389126 M22.5881544,6.15398835 C22.9819505,6.47066796 23.521766,6.51447379 23.957999,6.27354175 C24.1679019,6.41819223 24.4120282,6.49120194 24.657067,6.49120194 C24.8911544,6.49120194 25.1266107,6.42412427 25.3333194,6.28905631 C25.7563194,6.01253204 25.9653097,5.51287184 25.8708534,5.02279417 C26.2669311,4.71934757 26.4426107,4.20736699 26.3102806,3.71957087 C26.1779505,3.23131845 25.7668146,2.87859029 25.2726301,2.81698835 C25.1060767,2.34698835 24.6730379,2.02118252 24.1683583,1.99608544 C23.6645913,1.97190097 23.2014359,2.25298835 22.9897078,2.70427961 C22.4909602,2.71751262 22.0474262,3.0287165 21.8680961,3.50145437 C21.688766,3.97373592 21.8133388,4.50031845 22.1774748,4.84118252 C22.0355621,5.31939612 22.1943583,5.83685243 22.5881544,6.15398835" id="Fill-6" fill="#2D2319"></path>
            <path d="M21.1479922,19.6533466 C20.903866,19.3822981 20.5584388,19.229434 20.1979534,19.229434 C20.159167,19.229434 20.1208369,19.2312592 20.0815942,19.2349097 C20.2832835,18.8853757 20.3083806,18.462832 20.1495845,18.0918515 C20.5447495,18.1758126 20.9549728,18.0690359 21.2584194,17.8034631 C21.3004,18.2041039 21.5285553,18.5613951 21.8748951,18.7685602 C21.5066524,18.9323757 21.2374291,19.2604631 21.1479922,19.6533466 M22.622332,17.6109 C22.6300893,17.0715408 22.3156913,16.6015408 21.8078175,16.402133 C21.2999437,16.2027252 20.749633,16.3341427 20.388235,16.7347835 C19.8762544,16.5609291 19.3332447,16.7151621 18.9869049,17.1358806 C18.640565,17.5575117 18.594934,18.121968 18.8650699,18.5887738 C18.5415456,19.0204437 18.5196427,19.5862689 18.8130505,20.0453175 C19.1064583,20.5052786 19.628934,20.7238515 20.1573417,20.6106864 C20.4023806,20.9579388 20.7834,21.1532398 21.1927107,21.1532398 C21.3026816,21.1532398 21.414934,21.1390942 21.5271864,21.1098903 C22.0546816,20.9725408 22.4229243,20.5426961 22.4795068,20.0060748 C22.9951379,19.8472786 23.3451282,19.402832 23.3775262,18.8584534 C23.4103806,18.3131621 23.1156039,17.8303854 22.622332,17.6109" id="Fill-8" fill="#2D2319"></path>
            <path d="M11.3613602,13.5123175 C11.2276612,13.1614146 10.9438359,12.8880845 10.5883699,12.7657932 C10.8753893,12.5326184 11.0446806,12.1849097 11.0510689,11.8143854 C11.3672922,12.0197252 11.7578942,12.0744825 12.1170107,11.9626864 C12.0207291,12.3218029 12.0882631,12.7041913 12.3013602,13.0099194 C11.9285544,13.0304534 11.5844961,13.2143466 11.3613602,13.5123175 M13.1742825,10.8739291 C12.794632,10.5061427 12.2342825,10.4121427 11.7592631,10.6307155 C11.3613602,10.2875699 10.7950786,10.2227738 10.3282728,10.4732883 C9.86055437,10.7242592 9.60912718,11.2120553 9.67209806,11.7317932 C9.22354466,12.0019291 8.9944767,12.5015893 9.08528252,13.0245214 C9.17563204,13.5460845 9.57627282,13.9517447 10.0919039,14.0530456 C10.2132825,14.5604631 10.6321757,14.9428515 11.1551078,15.0149485 C11.2167097,15.0236184 11.277399,15.0277252 11.3380883,15.0277252 C11.794399,15.0277252 12.2059913,14.7886184 12.431865,14.3843272 C12.9520592,14.4276767 13.4457874,14.152065 13.6762243,13.6793272 C13.9062049,13.2065893 13.8199621,12.6476087 13.4640398,12.266133 C13.6661854,11.7829 13.5562146,11.2435408 13.1742825,10.8739291" id="Fill-10" fill="#2D2319"></path>
            <path d="M39.7932117,11.4803204 C39.1689786,11.7217087 38.7131243,12.1889709 38.4753864,12.8300874 C37.6996583,14.9240971 36.2650175,15.3726505 35.697367,15.4693883 C34.9786777,14.8018058 34.1034738,14.3048835 33.1310757,14.0379417 C33.3167942,13.5250485 33.4171825,12.9934466 33.4345223,12.4595631 C33.4363476,12.4577379 33.4381728,12.4568252 33.4395417,12.455 C33.4532311,12.4390291 34.845435,10.8547184 38.2632019,11.3803883 C38.6369204,11.4360583 38.9859981,11.1818932 39.0439495,10.8081748 C39.1014447,10.4349126 38.8454544,10.0849223 38.4717359,10.0274272 C35.8497748,9.62359223 34.153668,10.3025825 33.2360272,10.8843786 C33.0836194,10.3495825 32.8540951,9.83395146 32.5273767,9.36349515 C32.4242505,9.21519417 32.313367,9.07465049 32.1974641,8.93958252 C34.0902408,8.38379612 38.3170466,7.74313592 42.0843476,11.4063981 C41.3136388,11.2512524 40.4849786,11.2129223 39.7932117,11.4803204 M31.5002214,24.8059612 C28.8467748,24.8059612 26.6879689,22.6476117 26.6879689,19.9937087 C26.6879689,17.3402621 28.8467748,15.1814563 31.5002214,15.1814563 C34.1541243,15.1814563 36.3124738,17.3402621 36.3124738,19.9937087 C36.3124738,22.6476117 34.1541243,24.8059612 31.5002214,24.8059612 M22.9653864,23.5698155 C21.488765,23.8043592 20.0103184,23.4493495 18.8010951,22.5723204 C17.5914155,21.6943786 16.796066,20.398 16.5615223,18.921835 C16.077833,15.8750485 18.1627165,13.0021165 21.2095029,12.5175146 C23.6822505,12.1255437 26.0673864,13.3959126 27.1305903,15.6259029 C26.0121728,16.745233 25.3190369,18.290301 25.3190369,19.9937087 C25.3190369,20.7959029 25.4773767,21.5602233 25.7570951,22.2643107 C24.9676777,22.9524272 24.0094252,23.4041748 22.9653864,23.5698155 M13.3833184,28.5942524 C10.5030854,28.1717087 8.64316311,29.1176408 7.57265825,30.0179417 C7.64338641,25.6031359 10.7020369,22.4459223 11.3942602,21.7870097 C12.3958621,22.2278058 13.4932893,22.4751262 14.6322408,22.4751262 C14.634066,22.4751262 14.6358913,22.4746699 14.6377165,22.4746699 C13.2231534,23.1513786 11.4147942,24.2889612 10.2616971,26.0366311 C10.0536194,26.3528544 10.1407748,26.776767 10.4560854,26.985301 C10.5724447,27.0615049 10.7034058,27.098466 10.8325417,27.098466 C11.054765,27.098466 11.2728816,26.9898641 11.4047553,26.7909126 C13.1948621,24.0758641 17.057532,22.9939515 17.0963184,22.9834563 C17.1195903,22.977068 17.1401243,22.9665728 17.1624835,22.9583592 C17.4207553,23.2161748 17.6954544,23.4612136 17.9966194,23.6797864 C18.7490757,24.2259903 19.5845806,24.608835 20.462066,24.8191942 C19.8875709,26.245165 18.092901,29.2905825 13.3833184,28.5942524 M8.0490466,15.5328155 C7.77160971,13.8006602 8.18776505,12.0625728 9.22130874,10.6388835 C10.2676291,9.19694175 11.8190854,8.24918447 13.5891146,7.97037864 C16.3721534,7.53140777 19.113668,8.87798058 20.4625223,11.2781748 C16.9644447,12.1168738 14.6363476,15.5255146 15.2094738,19.136301 C15.3139689,19.7920194 15.5106388,20.417165 15.7839689,21.0021553 C15.7502019,21.0080874 15.7178039,21.0181262 15.6840369,21.0236019 C12.050435,21.5962718 8.6258233,19.1326505 8.0490466,15.5328155 M2.52586214,5.9261068 C4.23976505,5.29639806 7.24639612,4.59002913 10.5601243,5.59345631 C10.2356874,6.13646602 10.0125515,6.73605825 9.90531845,7.36667961 C9.24686214,6.75385437 8.10517282,6.04383495 6.14121165,5.59665049 C5.77296893,5.51360194 5.40609515,5.74403883 5.32213398,6.11228155 C5.23817282,6.48098058 5.46906602,6.84785437 5.83730874,6.93181553 C7.88614369,7.39770874 8.81473592,8.1611165 9.20533786,8.61514563 C8.80560971,8.98019417 8.43873592,9.3872233 8.11338641,9.83532039 C7.95732816,10.0502427 7.81313398,10.2710971 7.68034757,10.4974272 C6.9936,9.10339806 5.5452699,7.19738835 2.52586214,5.9261068 M12.808367,5.13303883 C13.6329204,4.55991262 14.6317845,4.34133981 15.6206097,4.51975728 C16.6089786,4.69771845 17.4695806,5.24985437 18.0427068,6.07486408 C18.3630369,6.53528155 18.5715709,7.05638835 18.6623767,7.59939806 C17.1031631,6.70457282 15.2478039,6.32309709 13.3760175,6.6183301 C12.6596097,6.73103883 11.9760563,6.94276699 11.3312893,7.23024272 C11.5621825,6.38926214 12.0764447,5.64136893 12.808367,5.13303883 M18.7609398,3.79331068 C19.4467748,2.65070874 20.5364447,1.84349515 21.8291728,1.52042718 C23.1223573,1.19827184 24.4634544,1.3972233 25.6060563,2.08305825 C27.3779107,3.14626214 28.2960078,5.16361165 27.9592505,7.17731068 C27.0448039,7.23982524 26.1595612,7.54190291 25.3870272,8.07898058 C24.3210854,8.82002913 23.5850563,9.9297767 23.3080757,11.1832621 C22.8490272,11.1029515 22.3772019,11.072835 21.899901,11.0869806 C21.4454155,10.131466 20.8193573,9.29504854 20.0641631,8.61149515 C20.1545126,7.43649515 19.8428524,6.26605825 19.1670563,5.29320388 C18.9516777,4.98382524 18.7043573,4.70501942 18.4342214,4.45496117 C18.5282214,4.22817476 18.6336291,4.00549515 18.7609398,3.79331068 M31.742066,13.8248447 C31.661299,13.8216505 31.581901,13.8125243 31.5002214,13.8125243 C30.2978427,13.8125243 29.1780563,14.1634272 28.2275612,14.7598252 C27.4322117,13.2631262 26.1449592,12.1469903 24.6286388,11.5556117 C24.8184641,10.6055728 25.3651243,9.76139806 26.1682311,9.20287379 C26.9932408,8.62974757 27.9916485,8.41254369 28.9809301,8.58959223 C29.969299,8.76800971 30.8294447,9.32014563 31.4030272,10.1451553 C32.1563961,11.2284369 32.2773184,12.6247476 31.742066,13.8248447 M44.8062408,12.4974369 C39.6508427,5.27358252 32.6492117,7.29458252 30.982765,7.91197087 C30.480367,7.60578641 29.9250369,7.38721359 29.3332019,7.26766019 C29.6996194,4.74563107 28.5291825,2.24048544 26.3106,0.909427184 C24.8549689,0.0351359223 23.1456291,-0.219941748 21.497435,0.192563107 C19.8496971,0.60415534 18.4611437,1.63267961 17.5868524,3.08876699 C17.4777942,3.27129126 17.3783184,3.45883495 17.2879689,3.65002913 C16.844435,3.42506796 16.3662214,3.26307767 15.8629107,3.17227184 C14.5131437,2.9308835 13.1519689,3.22702913 12.0267068,4.00914563 C11.8327748,4.14375728 11.6529883,4.2938835 11.4814155,4.45176699 C5.55713398,2.37874757 0.545473786,5.29092233 0.334658252,5.41595146 C0.100114563,5.55558252 -0.0294776699,5.82115534 0.00565825243,6.09174757 C0.0403378641,6.36279612 0.232900971,6.58684466 0.495279612,6.66213592 C5.78802718,8.18484466 6.7586,11.6514369 6.90142524,12.3436602 C6.59159029,13.4383495 6.51219223,14.5937282 6.69745437,15.7491068 C7.06067767,18.0156019 8.36025049,19.9033592 10.1394058,21.0979806 C8.8307068,22.4290388 5.52473592,26.3911845 6.32145437,31.7934466 C6.36389126,32.081835 6.58565825,32.309534 6.87222136,32.3642913 C6.91465825,32.3720485 6.95709515,32.375699 6.99861942,32.375699 C7.2413767,32.375699 7.47090097,32.2461068 7.59456117,32.0302718 C7.65707573,31.9207573 9.17659029,29.3567476 13.184367,29.9490388 C18.4926291,30.7270485 21.0694155,27.3211456 21.8615709,25.0012621 C21.9318427,25.0035437 22.0021146,25.0094757 22.0728427,25.0094757 C22.4401728,25.0094757 22.8102408,24.9807282 23.1803087,24.9218641 C24.3749301,24.7320388 25.4792019,24.2410485 26.4141825,23.4977184 C27.5303184,25.1126019 29.3929786,26.1748932 31.5002214,26.1748932 C34.9088621,26.1748932 37.6814058,23.4018932 37.6814058,19.9937087 C37.6814058,18.747068 37.3076874,17.5871262 36.669765,16.6151845 C37.6480951,16.262 38.981435,15.4045922 39.7594447,13.3060194 C39.8621146,13.0281262 40.0250175,12.858835 40.2864835,12.7570777 C41.2009301,12.4038932 43.0097456,13.0272136 43.9356,13.5036019 C44.2162311,13.6487087 44.5602893,13.5811748 44.7665417,13.3429806 C44.9737068,13.1038738 44.990134,12.7547961 44.8062408,12.4974369" id="Fill-12" fill="#2D2319"></path>
        </g>
    </g>
</svg>