<?xml version="1.0" encoding="UTF-8"?>
<svg width="45px" height="34px" viewBox="0 0 45 34" version="1.1" xmlns="http://www.w3.org/2000/svg" xmlns:xlink="http://www.w3.org/1999/xlink">
    <!-- Generator: Sketch 48.2 (47327) - http://www.bohemiancoding.com/sketch -->
    <title>Page 1</title>
    <desc>Created with Sketch.</desc>
    <defs>
        <polygon id="path-1" points="1.7476165 33.2038835 0 33.2038835 0 0.145048544 44.7854854 0.145048544 44.7854854 33.2038835 1.7476165 33.2038835 44.7854525 33.2039272 44.7854525 1.8929723 1.7476165 1.8929723"></polygon>
    </defs>
    <g id="nut-copy" stroke="none" stroke-width="1" fill="none" fill-rule="evenodd" transform="translate(-33.000000, -28.000000)">
        <g id="Page-1" transform="translate(33.000000, 28.000000)">
            <g id="Group-3" transform="translate(0.000000, 0.291670)">
                <mask id="mask-2" fill="white">
                    <use xlink:href="#path-1"></use>
                </mask>
                <g id="Clip-2"></g>
            </g>
            <path d="M41.5022767,5.51477184 C41.4957233,5.50690777 41.4882961,5.50122816 41.4813058,5.49380097 C41.4673252,5.47501456 41.4546553,5.45579126 41.439801,5.43700485 C39.7083932,3.23069417 36.9175194,2.07642233 33.5897039,2.19263592 C27.5846068,2.39666505 21.410432,6.77302427 18.9581505,12.288801 C17.6361117,11.5757913 16.0619854,11.2219078 14.2497524,11.2433155 C13.7901408,11.2162282 13.359801,11.2516165 12.9683447,11.3215194 C12.7586359,11.3424903 12.5502379,11.3608398 12.3352864,11.3905485 C12.1758204,10.7255971 11.9870825,8.92821845 14.0828592,7.59001456 C14.3878107,7.39516019 14.4773738,6.9897233 14.2825194,6.68477184 C14.0867913,6.3793835 13.6813544,6.29025728 13.3772767,6.48511165 C12.562034,7.00588835 12.0028107,7.60399515 11.6222767,8.21826699 C10.4212573,6.50258738 9.06208252,5.48462621 7.57096602,5.19190777 C5.60363592,4.80656796 4.16450971,5.8586068 4.10421845,5.90404369 C3.84819903,6.09583981 3.76824757,6.44448058 3.91504369,6.72889806 C5.0199466,8.86792718 6.41669417,10.1628786 8.0672767,10.5783641 C8.46441262,10.6784126 8.84713107,10.7194806 9.20756796,10.7194806 C9.88082039,10.7194806 10.4749951,10.5766165 10.9381019,10.4114709 C10.9232476,10.7142379 10.937665,11.0008398 10.9739272,11.2629757 C7.66664563,11.0855971 5.59795631,12.1773932 4.40829612,13.201034 C2.71751942,14.6563252 1.7476165,16.8875388 1.7476165,19.3227816 C1.7476165,22.9254029 3.43315049,25.6039951 6.49402427,26.8679272 C6.92873301,31.5418107 13.0316942,32.6947718 13.9338786,32.8393835 C14.9710631,33.316034 15.9912087,33.4955971 16.9418883,33.4955971 C19.2958689,33.4955971 21.2168883,32.3928786 21.8731019,31.9655971 C22.4895583,32.0341893 23.8788786,32.0018592 25.4980049,30.7457913 C27.0865485,29.5133155 27.2298495,28.1912767 27.1665,27.4878786 C28.4317427,27.8609854 29.7148981,28.0567136 30.9897524,28.0567136 C33.977665,28.0567136 36.9140243,27.044432 39.4305291,25.0854029 C42.4660631,22.7218107 44.2887816,19.5875388 44.7012087,16.0220534 C45.1215,12.3849175 43.9558689,8.55511165 41.5022767,5.51477184" id="Fill-1" fill="#F7A128"></path>
            <g id="Group-6" transform="translate(0.000000, 0.291670)" fill="#2D2319">
                <path d="M41.6516068,13.8321262 C41.2802476,17.0406699 39.629665,19.8691165 36.8772379,22.0120777 C33.5730146,24.5849417 29.6453447,25.3481942 25.7687913,24.191301 C25.8325777,23.9623689 25.8823835,23.7386796 25.9203932,23.5197961 C32.4965097,23.1781456 39.2154903,17.891301 40.9748592,11.6258155 C41.1718981,10.924165 41.2981602,10.2338738 41.3623835,9.55931068 C41.7105874,10.9704757 41.8150049,12.4183398 41.6516068,13.8321262 Z M24.4533058,18.2932427 C24.3366553,18.1503786 24.2095194,18.0110097 24.0710243,17.8764466 C23.7691311,17.5828544 23.4239854,17.3338252 23.0521893,17.1206214 L27.594568,13.5839709 L26.0304903,19.1508641 C25.9566553,19.4134369 25.7172379,19.6751359 25.4393738,19.8245534 C25.0431117,18.9603786 24.5703932,18.4199417 24.4533058,18.2932427 Z M24.2361699,24.5836311 C23.4292282,24.7356699 22.7398107,24.7417864 22.1613641,24.6548447 C22.2876262,24.6238252 22.4156359,24.5893107 22.5467039,24.5473689 C23.4082573,24.2734369 24.1557816,23.6836311 24.6647621,22.9282427 C24.6167039,23.4415922 24.4825777,23.9955728 24.2361699,24.5836311 Z M22.947335,27.6707184 C22.2461214,28.2150874 21.6270437,28.4623689 21.1508301,28.568534 C21.2076262,28.3728058 21.2434515,28.1679029 21.2521893,27.9533883 C21.2836456,27.1516893 20.971267,26.3124175 20.5614612,25.5675146 C21.1953932,25.8375146 21.981801,26.0301845 22.9420922,26.0301845 C23.3042767,26.0301845 23.6939854,25.9987282 24.1064126,25.938 C24.0439369,26.375767 23.7887913,27.0184369 22.947335,27.6707184 Z M18.8711214,22.2881942 C18.3525291,20.9700874 17.5617524,19.503 14.7346165,18.7838738 C14.1898107,18.6449417 13.7821893,18.2154757 13.8049078,18.0092621 C13.824568,17.8327573 14.3829175,17.3154757 16.6171893,17.2495049 C16.626801,17.2495049 16.6364126,17.249068 16.6460243,17.2481942 C16.6573835,17.2473204 16.9461699,17.2276602 17.4035971,17.2276602 C18.7859272,17.2276602 21.7065583,17.4063495 23.1570437,18.815767 C24.1055388,19.7376117 24.129568,20.6721262 23.9827718,21.2938252 C23.7660728,22.2134854 23.029034,23.0186796 22.149568,23.2982913 C20.3805874,23.8588252 19.2289369,23.1960583 18.8711214,22.2881942 Z M19.5544223,28.7301845 C19.3517039,28.8721748 17.772335,29.9298932 15.7407816,30.1077087 C16.577432,29.7232427 17.2624806,29.190233 17.7793252,28.5012524 C18.5390825,27.4889709 18.8055874,26.3298932 18.8689369,25.3495049 C19.4299078,26.1346019 19.9738398,27.1184854 19.9428204,27.9031456 C19.9288398,28.2443592 19.8043252,28.506932 19.5544223,28.7301845 Z M12.4081602,29.5078544 C11.7812184,29.4047476 6.30825728,28.3933398 6.04000485,24.6155243 C6.01990777,24.3328544 6.0242767,24.0576117 6.04393689,23.7911068 C6.39782039,24.3564466 7.94748058,26.3893107 11.9690825,26.3893107 C15.0443738,26.3893107 16.6582573,26.1529515 17.5381602,25.5395534 C17.4595194,26.249068 17.2410728,27.0354757 16.7312184,27.7144078 C15.8993738,28.8232427 14.4440825,29.4252816 12.4081602,29.5078544 Z M16.9273835,24.3463981 C16.3231602,25.0026117 13.8084029,25.0786311 11.9690825,25.0786311 C8.26029612,25.0786311 7.1750534,23.1410097 7.12612136,23.049699 C7.12087864,23.0396505 7.11563592,23.0300388 7.10995631,23.0204272 C6.75432524,22.4109612 6.64947087,21.8207184 6.79888835,21.2658641 C6.97626699,20.6052816 7.51408252,19.9910097 8.31447087,19.5353301 C9.84883981,18.6628544 11.5658301,18.5322233 11.9315097,18.873 C12.0101505,18.946835 12.0311214,19.2548447 12.0477233,19.5025631 C12.0966553,20.2286796 12.1783544,21.4428058 13.7568495,22.0548932 C14.1710243,22.2156699 14.5637913,22.3476117 14.9438883,22.4751845 C16.4319466,22.9745534 16.9994709,23.2248932 17.0536456,23.8815437 C17.0759272,24.146301 17.0020922,24.2651359 16.9273835,24.3463981 Z M15.3606845,21.2322233 C15.0015583,21.1120777 14.6210243,20.9845049 14.2304417,20.8329029 C13.4855388,20.5441165 13.4086456,20.1399903 13.3653932,19.5488738 C13.6764612,19.7834854 14.041267,19.9595534 14.4108786,20.0539223 C16.1864126,20.5056699 16.900733,21.2296019 17.346801,22.0850388 C16.7998107,21.7158641 16.090733,21.4773204 15.3606845,21.2322233 Z M5.93689806,20.0032427 C5.89015049,20.0740194 4.98447087,21.4690194 4.76471359,23.3948447 C1.92883981,21.9793107 1.31063592,19.3208155 1.31063592,17.2835825 C1.31063592,15.2000388 2.09354854,13.379068 3.51563592,12.1553301 C4.83024757,11.0237767 6.63723786,10.478534 8.79330583,10.5270291 C8.75354854,10.7026602 8.78369417,10.8940194 8.89684951,11.0526117 C9.02442233,11.2317379 9.2258301,11.3269806 9.43029612,11.3269806 C9.56223786,11.3269806 9.69549029,11.2872233 9.8108301,11.2042136 C9.82000485,11.198534 10.4976262,10.7376117 11.492432,10.5680971 C13.5930146,10.3797961 15.3510728,10.6851845 16.7320922,11.4777087 C16.6678689,11.6708155 16.6080146,11.865233 16.5534029,12.0600874 C16.1754903,13.4057184 16.0444223,14.7155243 16.1588883,15.9606699 C13.5034515,16.1162039 12.6965097,16.9511068 12.5296165,17.703 C11.3915097,17.0450388 9.25029612,17.4950388 7.66612136,18.3959126 C6.92296602,18.8192621 6.34189806,19.3649417 5.95568447,19.9800874 C5.95000485,19.9879515 5.94257767,19.9945049 5.93689806,20.0032427 Z M28.9598592,13.5699903 C28.9830146,13.4882913 29.0861214,13.4175146 29.1599563,13.391301 L32.3160728,17.351301 C32.3173835,17.3530485 32.3178204,17.3543592 32.3191311,17.3556699 C32.3676262,17.4163981 32.3584515,17.5181942 32.3488398,17.5732427 C32.3156359,17.7593592 32.1592282,18.0477087 31.8298107,18.2478058 C30.5108301,19.0473204 29.0725777,19.6021748 27.6705874,19.8525146 C27.5102476,19.8817864 27.3748107,19.8577573 27.3158301,19.7926602 C27.2655874,19.7371748 27.2572864,19.6318835 27.2931117,19.5047476 C27.2935485,19.5038738 27.2935485,19.503 27.2935485,19.5021262 L28.9598592,13.5699903 Z M28.5504903,11.6140194 C28.5539854,11.6070291 28.5539854,11.5996019 28.5570437,11.5926117 C28.5710243,11.5899903 28.5841311,11.591301 28.5981117,11.5882427 C28.7632573,11.5550388 28.919665,11.4925631 29.0651505,11.4108641 C29.1180146,11.4410097 29.1726262,11.4667864 29.2289854,11.4881942 C29.2364126,11.5441165 29.2495194,11.5982913 29.2648107,11.6529029 C29.1494709,11.7765437 29.0498592,11.9163495 28.9782087,12.0718835 C28.9747136,12.0793107 28.9742767,12.0871748 28.9712184,12.0946019 C28.9572379,12.0967864 28.944568,12.0950388 28.9310243,12.0976602 C28.7650049,12.131301 28.6081602,12.1942136 28.4622379,12.2759126 C28.4093738,12.245767 28.355199,12.2195534 28.2992767,12.1981456 C28.2918495,12.1426602 28.2787427,12.0880485 28.2630146,12.0338738 C28.3792282,11.9097961 28.4788398,11.7695534 28.5504903,11.6140194 Z M35.4018495,5.84440777 C35.4009757,5.84484466 35.4001019,5.84615534 35.3992282,5.84659223 L29.9341311,10.1014951 L31.4977718,4.53591262 C31.6205388,4.09727184 32.1902476,3.68746602 32.605733,3.73945631 C33.8377718,3.89280583 34.9352476,4.33712621 35.7793252,5.02392233 C35.7928689,5.03528155 35.8247621,5.06149515 35.8238883,5.15586408 C35.8217039,5.33673786 35.6906359,5.61940777 35.4018495,5.84440777 Z M36.9069466,12.6625631 C36.332432,13.9505243 35.4512184,15.2013495 34.3572379,16.2804757 C34.1309272,16.5028544 33.8229175,16.639165 33.5638398,16.6225631 C33.5039854,16.619068 33.3956359,16.6033398 33.3436456,16.5382427 L30.1910243,12.5817379 C30.2360243,12.5192621 30.327335,12.4458641 30.4125291,12.4428058 C30.412966,12.4428058 30.4134029,12.4428058 30.4138398,12.4428058 L36.6408786,12.2309126 C36.7758786,12.2230485 36.889034,12.261932 36.9322864,12.3265922 C36.9794709,12.3964951 36.9698592,12.5218835 36.9069466,12.6625631 Z M36.5967524,10.9211068 L36.5963155,10.9211068 L30.760733,11.1194563 L36.2070437,6.87897087 C36.442966,6.69547573 36.6933058,6.62120388 36.8776748,6.62120388 C36.9222379,6.62120388 36.9628689,6.62557282 36.9982573,6.63343689 C37.0965583,6.65615534 37.1162184,6.69591262 37.1236456,6.71076699 C37.6002961,7.67935922 37.7789854,8.83450485 37.6413641,10.0512524 C37.5954903,10.458 37.0581117,10.9053786 36.5967524,10.9211068 Z M25.209568,6.3311068 C25.1606359,6.26994175 25.1698107,6.16814563 25.1798592,6.11309709 C25.2130631,5.92654369 25.3685971,5.63819417 25.6984515,5.43853398 C27.0165583,4.63945631 28.4548107,4.08460194 29.8581117,3.83382524 C30.0180146,3.80542718 30.1538883,3.82901942 30.2119951,3.8941165 C30.2626748,3.94960194 30.2709757,4.05401942 30.2351505,4.18071845 C30.2347136,4.18246602 30.2347136,4.18421359 30.2342767,4.18596117 L28.5692767,10.1137282 C28.5692767,10.1146019 28.5688398,10.1154757 28.5684029,10.1163495 C28.5456845,10.1976117 28.4430146,10.2692621 28.3691796,10.2954757 L25.209568,6.3311068 Z M26.7670922,12.5668835 L21.687335,16.5220777 C21.1560728,16.3468835 20.6103932,16.2214951 20.0808786,16.1314951 C19.8541311,15.3603786 19.7868495,14.5219806 19.8868981,13.6355243 C19.9327718,13.2283398 20.4701505,12.7813981 20.9315097,12.7656699 L26.7670922,12.5668835 Z M20.8935,11.4554272 C20.8913155,11.4558641 20.889568,11.4549903 20.8878204,11.4554272 C20.7515097,11.4628544 20.6392282,11.4239709 20.5959757,11.3597476 C20.5487913,11.2902816 20.5588398,11.1644563 20.6213155,11.0233398 C21.1953932,9.73625243 22.0766068,8.48586408 23.1705874,7.40630097 C23.3977718,7.18261165 23.7132087,7.05460194 23.9652961,7.0637767 C24.0247136,7.06770874 24.1326262,7.08343689 24.1841796,7.14766019 C24.1841796,7.14809709 24.1846165,7.14809709 24.1846165,7.14809709 L27.336801,11.1037282 C27.291801,11.1666408 27.2013641,11.2409126 27.115733,11.243534 C27.1152961,11.243534 27.1148592,11.2439709 27.1144223,11.2439709 L20.8935,11.4554272 Z M17.8151505,12.4144078 C19.4530631,6.58406796 25.765733,1.67120388 31.8861699,1.46280583 C34.7976262,1.35969903 37.1948592,2.3387767 38.6610728,4.20736893 C40.1032573,6.04450485 40.476801,8.55314563 39.7131117,11.271932 C38.1084029,16.9851845 32.0146165,21.8146019 26.0108301,22.2021262 C25.9955388,21.7984369 25.9413641,21.4205243 25.8614126,21.069699 C26.0615097,20.9845049 26.2498107,20.8739709 26.4223835,20.7411553 C26.7142282,21.020767 27.1021893,21.1758641 27.5390825,21.1758641 C27.6570437,21.1758641 27.7780631,21.1645049 27.9008301,21.1426602 C29.4601019,20.8643592 31.0534515,20.2505243 32.5087427,19.3688738 C33.064034,19.032466 33.464665,18.5029515 33.6075291,17.9341165 C34.1995194,17.9328058 34.8159757,17.6689223 35.2777718,17.2132427 C36.4866553,16.0209612 37.4639854,14.6320777 38.104034,13.1968835 C38.3425777,12.6621262 38.3242282,12.1112039 38.0620922,11.6686311 C38.5352476,11.2889709 38.8799563,10.7603301 38.9437427,10.1989223 C39.1097621,8.73183495 38.8869466,7.32547573 38.2993252,6.1318835 C38.1044709,5.73649515 37.7466553,5.46125243 37.2918495,5.35639806 C37.2363641,5.34329126 37.1791311,5.33630097 37.122335,5.32887379 C37.1280146,5.27600971 37.1341311,5.22270874 37.134568,5.16984466 C37.1398107,4.70149515 36.9519466,4.28863107 36.6063641,4.00770874 C35.5713641,3.16494175 34.2440825,2.62275728 32.7669466,2.43926214 C32.1985485,2.36804854 31.5978204,2.57819417 31.1146165,2.94736893 C30.744568,2.58867961 30.2106845,2.4414466 29.6278689,2.54367961 C28.0672864,2.82241748 26.4739369,3.43581553 25.0195194,4.31790291 C24.4633544,4.65431068 24.0622864,5.18513592 23.9202961,5.75528155 C23.3261214,5.75484466 22.7122864,6.01785437 22.2504903,6.47309709 C21.0411699,7.66625243 20.0642767,9.05469903 19.4242282,10.4898932 C19.1856845,11.0246505 19.204034,11.5755728 19.4661699,12.0181456 C18.9925777,12.3978058 18.6483058,12.9264466 18.5845194,13.4878544 C18.4870922,14.3498447 18.5255388,15.1786311 18.6898107,15.9628544 C18.2284515,15.9283398 17.8134029,15.9165437 17.4730631,15.9156699 C17.3599078,14.8081456 17.4730631,13.6329029 17.8151505,12.4144078 Z M6.63942233,7.26824272 C5.50786893,6.98338835 4.50170388,6.10304854 3.64146117,4.64819417 C4.07704369,4.46513592 4.76471359,4.28076699 5.57078155,4.43848544 C6.75956796,4.6722233 7.87976214,5.56042718 8.90689806,7.08168932 C8.38830583,7.29096117 7.56388835,7.5011068 6.63942233,7.26824272 Z M39.7546165,3.47557282 C39.7485,3.46770874 39.7406359,3.46202913 39.7336456,3.45460194 C39.719665,3.43581553 39.7069951,3.41659223 39.6925777,3.39780583 C37.960733,1.19149515 35.1698592,0.037223301 31.8420437,0.153 C25.8369466,0.357466019 19.6627718,4.73382524 17.2104903,10.2496019 C15.8884515,9.53615534 14.3143252,9.18227184 12.5020922,9.2041165 C12.0424806,9.17702913 11.6121408,9.21241748 11.2211214,9.28232039 C11.0109757,9.30329126 10.8030146,9.32164078 10.5876262,9.35134951 C10.4281602,8.68639806 10.2394223,6.88901942 12.335199,5.55081553 C12.6405874,5.35596117 12.7297136,4.95052427 12.5348592,4.64557282 C12.3391311,4.33974757 11.9336942,4.25105825 11.6296165,4.44591262 C10.8143738,4.96668932 10.2551505,5.56479612 9.8750534,6.17906796 C8.67403398,4.46338835 7.31442233,3.44542718 5.82330583,3.15270874 C3.85597573,2.76736893 2.41684951,3.81940777 2.35699515,3.86484466 C2.10097573,4.05664078 2.02058738,4.40528155 2.1673835,4.68969903 C3.27228641,6.82872816 4.66947087,8.12367961 6.3196165,8.53916505 C6.71675243,8.63921359 7.09947087,8.68028155 7.45990777,8.68028155 C8.13316019,8.68028155 8.72733495,8.53741748 9.19044175,8.37227184 C9.17602427,8.67503883 9.19000485,8.96164078 9.22626699,9.2237767 C5.91898544,9.04639806 3.85029612,10.1377573 2.66063592,11.161835 C0.969859223,12.6171262 -4.36893204e-05,14.8483398 -4.36893204e-05,17.2835825 C-4.36893204e-05,20.8862039 1.68549029,23.5647961 4.74636408,24.8282913 C5.18107282,29.5026117 11.2844709,30.6555728 12.1866553,30.8001845 C13.2238398,31.276835 14.2439854,31.4563981 15.1942282,31.4563981 C17.5482087,31.4563981 19.469665,30.3536796 20.1254417,29.9263981 C20.742335,29.9949903 22.1312184,29.9626602 23.7503447,28.7065922 C25.3388883,27.4741165 25.4821893,26.1520777 25.4192767,25.4486796 C26.6840825,25.8217864 27.9672379,26.0175146 29.2425291,26.0175146 C32.2304417,26.0175146 35.1663641,25.005233 37.6828689,23.0462039 C40.7184029,20.6826117 42.5411214,17.5483398 42.9535485,13.9828544 C43.3738398,10.3457184 42.2082087,6.51591262 39.7546165,3.47557282 Z" id="Fill-4"></path>
            </g>
        </g>
    </g>
</svg>