<?xml version="1.0" encoding="UTF-8"?>
<svg width="45px" height="43px" viewBox="0 0 45 43" version="1.1" xmlns="http://www.w3.org/2000/svg" xmlns:xlink="http://www.w3.org/1999/xlink">
    <!-- Generator: Sketch 48.2 (47327) - http://www.bohemiancoding.com/sketch -->
    <title>Page 1</title>
    <desc>Created with Sketch.</desc>
    <defs>
        <polygon id="path-1" points="17.8006684 16.9354839 0.297623155 16.9354839 0.297623155 0.467923232 17.8006684 0.467923232 17.8006684 16.9354839"></polygon>
        <polygon id="path-3" points="0 19.2403065 0 0.4695 20.121292 0.4695 20.121292 19.2403065"></polygon>
        <polygon id="path-5" points="0.460361635 0.430645161 17.9113263 0.430645161 17.9113263 17.481629 0.460361635 17.481629"></polygon>
    </defs>
    <g id="nut" stroke="none" stroke-width="1" fill="none" fill-rule="evenodd" transform="translate(-32.000000, -23.000000)">
        <g id="Page-1" transform="translate(32.000000, 23.000000)">
            <g id="Group-3" transform="translate(26.129032, 20.859871)" fill="#A87B64">
                <path d="M18.1001129,7.32372581 C17.1749516,4.91259677 15.4010806,3.04872581 12.842371,1.76017742 C12.8675323,1.71082258 12.8931774,1.66775806 12.9178548,1.61695161 C13.0915645,1.25985484 12.9464032,0.829209677 12.5917258,0.65066129 C12.4305968,0.569854839 8.74398387,-1.2045 4.67317742,3.25340323 C3.9468871,2.74001613 2.60656452,2.04469355 0.845274194,2.24308065 C0.447048387,2.28759677 0.160596774,2.6471129 0.205112903,3.04533871 C0.250112903,3.44308065 0.612048387,3.73340323 1.00737097,3.68501613 C2.24898387,3.54904839 3.20656452,4.01259677 3.74704839,4.37501613 C0.147532258,9.19969355 2.51414516,12.5388871 2.62059677,12.6840484 C2.73527419,12.8398548 2.90753226,12.9434032 3.09866129,12.9719516 C3.13398387,12.9772742 3.16979032,12.9796935 3.20559677,12.9796935 C3.36091935,12.9796935 3.51333871,12.9298548 3.63962903,12.8359839 C3.67979032,12.8059839 3.71269355,12.7764677 3.75140323,12.7464677 C5.46962903,15.0792097 7.61559677,16.5163065 10.1505968,17.0001774 C10.8125323,17.1264677 11.4555968,17.1801774 12.069629,17.1801774 C14.7594677,17.1801774 16.8875323,16.1456613 17.5886613,15.6521129 C17.8209194,15.4880806 18.0062419,15.2640484 18.1247903,15.0037258 C18.5651129,14.0330806 19.419629,10.761629 18.1001129,7.32372581" id="Fill-1"></path>
            </g>
            <g id="Group-6" transform="translate(7.741935, 25.214710)">
                <mask id="mask-2" fill="white">
                    <use xlink:href="#path-1"></use>
                </mask>
                <g id="Clip-5"></g>
                <path d="M16.8431613,1.98745161 C15.2425161,-0.162870968 10.5886452,-0.00948387097 7.07912903,2.31116129 C1.03654839,6.30696774 0.325258065,14.5443871 0.29816129,14.8932581 C0.296225806,14.9164839 0.300096774,14.9392258 0.300580645,14.9624516 C0.300580645,14.9779355 0.300580645,14.9924516 0.301548387,15.0084194 C0.308322581,15.0897097 0.327677419,15.1680968 0.360096774,15.2416452 C0.365419355,15.2542258 0.372677419,15.2653548 0.378967742,15.2774516 C0.416709677,15.3519677 0.46316129,15.4216452 0.526064516,15.4801935 C0.527516129,15.4816452 0.530419355,15.482129 0.532354839,15.4840645 C0.533322581,15.4855161 0.534290323,15.4874516 0.535741935,15.4889032 C0.64316129,15.5861613 2.19445161,16.9356774 4.98590323,16.9356774 C6.95283871,16.9356774 9.53574194,16.2650323 12.6625161,14.0126129 C19.6496129,8.97890323 17.6197742,3.56680645 17.2196129,2.676 C17.118,2.406 16.9844516,2.17712903 16.8431613,1.98745161" id="Fill-4" fill="#A87B64" mask="url(#mask-2)"></path>
            </g>
            <path d="M16.6177742,24.0541935 C19.4561613,23.1048387 21.2058387,21.5922581 21.8189032,19.5580645 C22.7556774,16.4477419 20.6653548,13.2096774 20.0672903,12.3706452 C20.0382581,11.6414516 19.8195484,9.57193548 18.332129,8.01145161 C17.2105161,6.83467742 15.6427742,6.21967742 13.6719677,6.18193548 C13.5277742,6.18 13.386,6.17854839 13.2461613,6.17854839 C4.25245161,6.17854839 3.49229032,11.7125806 2.98664516,15.393871 C2.83470968,16.496129 2.69051613,17.5446774 2.35519355,18.045 C2.27293548,18.1359677 2.18583871,18.2235484 2.10648387,18.3169355 C2.09196774,18.333871 2.08132258,18.3532258 2.06874194,18.371129 C2.06003226,18.3837097 2.05083871,18.3958065 2.0426129,18.408871 C2.00922581,18.4630645 1.98164516,18.5201613 1.96422581,18.5796774 C1.96180645,18.5869355 1.96132258,18.5941935 1.95987097,18.6009677 C1.94487097,18.6566129 1.9376129,18.7132258 1.93616129,18.7703226 C1.93616129,18.7843548 1.93519355,18.7979032 1.93567742,18.8124194 C1.9376129,18.8758065 1.94729032,18.9387097 1.96616129,18.9996774 C1.96712903,19.0030645 1.96664516,19.0059677 1.9676129,19.0093548 C1.97003226,19.0166129 1.97487097,19.0224194 1.97729032,19.0291935 C1.99616129,19.0824194 2.02083871,19.1327419 2.05229032,19.1806452 C2.05954839,19.1917742 2.06583871,19.2033871 2.07358065,19.2140323 C2.10648387,19.2590323 2.14325806,19.3020968 2.18777419,19.3398387 C2.19067742,19.3427419 2.19503226,19.3432258 2.19793548,19.346129 C2.25987097,19.3969355 2.32858065,19.4375806 2.40406452,19.466129 C2.42390323,19.4733871 2.44422581,19.4743548 2.46454839,19.4796774 C2.511,19.4927419 2.55648387,19.5082258 2.60583871,19.5116129 C3.47293548,19.575 4.13777419,20.3448387 4.97970968,21.3193548 C6.35970968,22.9166129 8.11470968,24.9493548 11.8182581,24.9493548 C13.1440645,24.9493548 14.7200323,24.6890323 16.6177742,24.0541935" id="Fill-7" fill="#A87B64"></path>
            <path d="M33.8979677,19.3194194 C35.1739355,19.3194194 36.383129,18.9042581 37.4200645,18.0903871 C39.2307097,16.6702258 40.328129,14.168129 40.1510323,11.8644194 C39.8786129,8.31958065 37.2352258,2.90409677 37.1229677,2.67570968 C37.0044194,2.43425806 36.7624839,2.27796774 36.4939355,2.27022581 C36.3444194,2.26345161 32.7952258,2.1836129 27.1794194,4.43796774 C23.1579677,6.05264516 22.5516774,8.89103226 22.7515161,10.988129 C22.9610323,13.1863548 24.180871,15.1992581 26.0979677,16.5216774 C26.1057097,16.5274839 26.112,16.5332903 26.1197419,16.5390968 C26.1202258,16.5395806 26.1211935,16.5395806 26.1221613,16.5405484 C26.1279677,16.5444194 26.1328065,16.5487742 26.1386129,16.5526452 C27.510871,17.487 28.5366774,17.888129 31.8860323,18.9865161 C32.5653871,19.2090968 33.2403871,19.3194194 33.8979677,19.3194194" id="Fill-9" fill="#A87B64"></path>
            <path d="M34.6162258,34.6494677 C32.4170323,34.2299516 30.5444516,32.9457581 29.0342903,30.8520484 C29.7731613,30.0759194 30.1621935,29.3549516 30.3499355,28.7588226 C32.5800968,29.994629 34.821871,28.7849516 34.9278387,28.7264032 C35.0875161,28.6378548 35.2084839,28.4922097 35.2655806,28.3194677 C35.3038065,28.2038226 36.0842903,25.757371 34.4773548,23.7599516 C35.0250968,23.4691452 35.6604194,22.9552742 36.2865484,22.0838226 C38.5660645,23.2083387 40.1362258,24.8288226 40.9384839,26.9191452 C41.4842903,28.3422097 41.594129,29.7962419 41.5142903,31.0015645 C41.028,30.0826935 40.2997742,29.027371 39.2154194,28.0785 C38.9139677,27.8143065 38.4552581,27.8447903 38.1915484,28.1467258 C37.9273548,28.4486613 37.9578387,28.9068871 38.2597742,29.1710806 C39.8294516,30.5452742 40.5402581,32.2083387 40.8233226,33.0686613 C40.1720323,33.0357581 38.8283226,32.8678548 37.1154194,32.1043065 C36.749129,31.9397903 36.3199355,32.1052742 36.156871,32.4720484 C35.9938065,32.8383387 36.1583226,33.2675323 36.5246129,33.4301129 C37.566871,33.8951129 38.4876774,34.1612419 39.2454194,34.3175323 C38.0178387,34.7114032 36.3494516,34.9804355 34.6162258,34.6494677 M29.511871,23.7967258 C31.5910645,21.2830161 33.5033226,20.7609194 34.7333226,20.7609194 C34.9825161,20.7609194 35.204129,20.7822097 35.3933226,20.8131774 C34.4434839,22.359629 33.5163871,22.6330161 33.2270323,22.6809194 C32.9042903,22.7336613 32.6415484,22.9712419 32.5573548,23.2857581 C32.4712258,23.6075323 32.5834839,23.9530161 32.8433226,24.1654355 C34.2354194,25.3068871 34.0888065,26.9239839 33.9586452,27.5767258 C33.3494516,27.8181774 31.8063871,28.2435 30.4617097,27.0705968 C30.2071935,26.8489839 29.8471935,26.7957581 29.5447742,26.9370484 C29.2476774,27.0749516 29.0594516,27.3768871 29.0642903,27.7064032 C29.0710645,28.0862419 28.9288065,29.0172097 27.6450968,30.1891452 C27.2676774,29.0951129 27.0136452,26.8180161 29.511871,23.7967258 M42.2938065,26.3989839 C41.3686452,23.9878548 39.5947742,22.1239839 37.0355806,20.8354355 C37.0607419,20.7860806 37.0863871,20.7435 37.1115484,20.6922097 C37.2852581,20.3351129 37.1400968,19.9044677 36.7849355,19.7259194 C36.6242903,19.6451129 32.9371935,17.8707581 28.866871,22.3291452 C28.1400968,21.8152742 26.8002581,21.1204355 25.0389677,21.3183387 C24.6407419,21.3628548 24.3542903,21.722371 24.3988065,22.1205968 C24.4438065,22.5188226 24.8057419,22.8086613 25.2010645,22.7607581 C26.4426774,22.6243065 27.3997742,23.0878548 27.9407419,23.4502742 C24.3412258,28.2749516 26.7073548,31.614629 26.8142903,31.7593065 C26.9289677,31.9155968 27.1007419,32.0186613 27.291871,32.0472097 C27.3276774,32.0525323 27.3634839,32.0554355 27.3988065,32.0554355 C27.5546129,32.0554355 27.7070323,32.0051129 27.8328387,31.9112419 C27.873,31.8812419 27.9059032,31.8517258 27.9450968,31.8217258 C29.6633226,34.1549516 31.8092903,35.5920484 34.3442903,36.0754355 C35.0062258,36.2017258 35.6488065,36.2554355 36.2628387,36.2554355 C38.9531613,36.2554355 41.0807419,35.2214032 41.7823548,34.727371 C42.0146129,34.5633387 42.1994516,34.3393065 42.318,34.0789839 C42.7588065,33.1083387 43.6128387,29.837371 42.2938065,26.3989839" id="Fill-11" fill="#2D2319"></path>
            <path d="M17.6202581,36.2650645 C13.6297742,39.1392581 10.7381613,39.1474839 9.04993548,38.6839355 C14.5302581,37.3634516 18.0112258,34.4892581 18.1946129,34.3349032 C20.0638065,32.7753871 21.2860645,31.4345806 22.0559032,30.2911935 C21.7113871,32.0026452 20.5805806,34.1321613 17.6202581,36.2650645 M13.6863871,26.952 C15.344129,25.8555484 17.2481613,25.3537742 18.7888065,25.3537742 C20.0299355,25.3537742 21.0354194,25.6799032 21.4849355,26.2842581 C22.2431613,27.3032903 21.531871,29.6607097 17.2631613,33.2210323 C17.2621935,33.222 17.2612258,33.2229677 17.2597742,33.2239355 C17.2205806,33.2568387 13.4492903,36.3932903 7.67767742,37.500871 C8.04106452,35.3084516 9.35864516,29.8136129 13.6863871,26.952 M22.6496129,25.4176452 C21.0489677,23.2673226 16.3950968,23.4207097 12.8855806,25.7413548 C6.843,29.7371613 6.13170968,37.9745806 6.1046129,38.3234516 C6.10267742,38.3466774 6.10654839,38.3694194 6.10703226,38.3926452 C6.10703226,38.408129 6.10703226,38.423129 6.108,38.4386129 C6.11477419,38.5199032 6.13412903,38.5982903 6.16654839,38.6723226 C6.17187097,38.6844194 6.17912903,38.6955484 6.18541935,38.7076452 C6.22316129,38.7821613 6.2696129,38.8523226 6.33251613,38.9103871 C6.33396774,38.9123226 6.33687097,38.9128065 6.33880645,38.9142581 C6.34025806,38.9157097 6.34074194,38.9176452 6.34219355,38.9190968 C6.4496129,39.0163548 8.00090323,40.365871 10.7923548,40.365871 C12.7592903,40.365871 15.3421935,39.6952258 18.4689677,37.4428065 C25.4560645,32.4090968 23.4262258,26.997 23.0260645,26.1061935 C22.9244516,25.8361935 22.7909032,25.6073226 22.6496129,25.4176452" id="Fill-13" fill="#2D2319"></path>
            <path d="M18.0311129,29.6014355 C19.0138548,28.6980484 20.0091774,28.4957903 20.0372419,28.4904677 C20.4296613,28.4198226 20.6919194,28.0448226 20.6236935,27.6519194 C20.5549839,27.2565968 20.1795,26.9909516 19.7841774,27.0611129 C19.7265968,27.0712742 18.3698226,27.3185323 17.0488548,28.5325645 C16.7536935,28.8040161 16.7343387,29.2632097 17.0053065,29.5578871 C17.1485323,29.7136935 17.3440161,29.7930484 17.5399839,29.7930484 C17.715629,29.7930484 17.8917581,29.7296613 18.0311129,29.6014355" id="Fill-15" fill="#2D2319"></path>
            <path d="M15.3064839,31.6153548 C15.2542258,31.6313226 14.0126129,32.019871 13.1818065,32.9508387 C12.9147097,33.2503548 12.9408387,33.7085806 13.239871,33.9756774 C13.3787419,34.0990645 13.551,34.1600323 13.7232581,34.1600323 C13.9226129,34.1600323 14.1214839,34.0782581 14.2647097,33.9176129 C14.8177742,33.2977742 15.7153548,33.0089032 15.7337419,33.0026129 C16.1155161,32.8845484 16.3303548,32.4795484 16.2132581,32.0968065 C16.0951935,31.7135806 15.6901935,31.4968065 15.3064839,31.6153548" id="Fill-17" fill="#2D2319"></path>
            <path d="M15.3487742,27.2690323 C15.2911935,27.2854839 13.932,27.6779032 12.8747419,28.8343548 C12.6042581,29.1304839 12.6250645,29.5891935 12.9207097,29.8596774 C13.0600645,29.9869355 13.2352258,30.0498387 13.4103871,30.0498387 C13.6068387,30.0498387 13.8028065,29.9704839 13.9460323,29.8137097 C14.712,28.976129 15.7257097,28.6712903 15.7445806,28.6659677 C16.1287742,28.556129 16.3523226,28.1559677 16.2439355,27.7712903 C16.1355484,27.3851613 15.7339355,27.1620968 15.3487742,27.2690323" id="Fill-19" fill="#2D2319"></path>
            <path d="M11.2259516,32.6020161 C11.1461129,32.6421774 10.4343387,33.0133065 9.9378871,33.6839516 C9.69982258,34.0062097 9.76756452,34.4610484 10.0898226,34.6991129 C10.2199839,34.7949194 10.3709516,34.841371 10.5209516,34.841371 C10.7435323,34.841371 10.9632097,34.7397581 11.1049839,34.5471774 C11.3972419,34.1518548 11.8680484,33.9041129 11.8815968,33.8973387 C12.2377258,33.716371 12.3804677,33.2808871 12.2009516,32.9237903 C12.0204677,32.5657258 11.5835323,32.4234677 11.2259516,32.6020161" id="Fill-21" fill="#2D2319"></path>
            <g id="Group-25" transform="translate(0.000000, 3.924387)">
                <mask id="mask-4" fill="white">
                    <use xlink:href="#path-3"></use>
                </mask>
                <g id="Clip-24"></g>
                <path d="M4.14275806,14.6614355 C3.48420968,13.8988548 2.84840323,13.1691774 2.05582258,12.7390161 C4.77517742,10.1619194 9.06179032,8.7345 14.2885645,8.70353226 C14.6892097,8.7011129 15.0119516,8.37401613 15.0095323,7.97337097 C15.0075968,7.57417742 14.6829194,7.25191935 14.2837258,7.25191935 L14.279371,7.25191935 C9.45372581,7.28095161 5.34808065,8.45095161 2.38920968,10.5853065 C2.42308065,10.3564355 2.45598387,10.1227258 2.48937097,9.88224194 C2.98533871,6.26917742 3.6105,1.75224194 11.7090484,1.92498387 C13.2729194,1.95401613 14.4932419,2.41514516 15.3371129,3.29482258 C16.7175968,4.73385484 16.6846935,6.86579032 16.6842097,6.88466129 C16.6798548,7.05304839 16.7340484,7.21853226 16.8371129,7.35208065 C16.8622742,7.38401613 19.3430806,10.6235323 18.4919516,13.4353065 C18.0211452,14.9895 16.5845323,16.178371 14.2222742,16.9685323 C7.94695161,19.0665968 5.92582258,16.7265968 4.14275806,14.6614355 M14.6824355,18.3451452 C17.5203387,17.3957903 19.2705,15.8832097 19.8830806,13.8490161 C20.8203387,10.7391774 18.7300161,7.50062903 18.1319516,6.66208065 C18.1029194,5.93240323 17.8842097,3.86337097 16.3967903,2.30240323 C15.2751774,1.12562903 13.7074355,0.510629032 11.7361452,0.473370968 C11.5924355,0.470951613 11.4506613,0.4695 11.3103387,0.4695 C2.3171129,0.4695 1.55646774,6.00353226 1.05082258,9.68482258 C0.899370968,10.7875645 0.755177419,11.8361129 0.419854839,12.3364355 C0.337596774,12.4274032 0.2505,12.5145 0.171145161,12.6078871 C0.156629032,12.6253065 0.145983871,12.6441774 0.133403226,12.6620806 C0.124209677,12.6751452 0.1155,12.6867581 0.107274194,12.6998226 C0.0734032258,12.7545 0.0463064516,12.8111129 0.0288870968,12.870629 C0.0264677419,12.8778871 0.025983871,12.8851452 0.0240483871,12.8924032 C0.00953225806,12.9480484 0.00227419355,13.0046613 0.000822580645,13.0612742 C0.000338709677,13.0757903 -0.000629032258,13.0888548 -0.00014516129,13.103371 C0.00227419355,13.1667581 0.0119516129,13.2296613 0.0303387097,13.290629 C0.0313064516,13.2940161 0.0308225806,13.2974032 0.0322741935,13.3003065 C0.0342096774,13.3080484 0.0395322581,13.313371 0.0419516129,13.320629 C0.0603387097,13.373371 0.0855,13.4236935 0.116951613,13.4720806 C0.124209677,13.4827258 0.1305,13.4943387 0.138241935,13.5049839 C0.171145161,13.5504677 0.207919355,13.5930484 0.251951613,13.6307903 C0.25533871,13.6336935 0.259693548,13.6341774 0.262596774,13.6370806 C0.324048387,13.6878871 0.392758065,13.7290161 0.468725806,13.7570806 C0.488564516,13.7643387 0.508887097,13.7653065 0.529209677,13.7711129 C0.57566129,13.7841774 0.621145161,13.7991774 0.6705,13.8030484 C1.53759677,13.8659516 2.20243548,14.6357903 3.04437097,15.6103065 C4.42437097,17.2080484 6.17937097,19.2403065 9.88243548,19.2403065 C11.2087258,19.2403065 12.7846935,18.9799839 14.6824355,18.3451452" id="Fill-23" fill="#2D2319" mask="url(#mask-4)"></path>
            </g>
            <path d="M10.8791129,20.0237419 C11.8226613,20.2105161 12.671371,20.0416452 13.3318548,19.5374516 C13.6918548,19.2630968 14.0233065,19.1126129 14.3450806,19.0777742 C15.6084677,18.9422903 16.4755645,18.3026129 16.7866935,17.2772903 C16.9028226,16.8935806 16.6860484,16.4880968 16.3023387,16.3719677 C15.9191129,16.254871 15.513629,16.472129 15.3975,16.8558387 C15.3471774,17.0218065 15.1942742,17.5269677 14.1897581,17.634871 C13.5970161,17.6982581 13.0279839,17.9430968 12.4516935,18.3834194 C12.1255645,18.6311613 11.6895968,18.7027742 11.1592742,18.5997097 C10.5370161,18.4772903 9.9708871,18.5077742 9.47443548,18.6935806 C8.45782258,19.0724516 7.7958871,18.2111613 7.72040323,18.1061613 C7.49104839,17.7800323 7.04104839,17.7001935 6.71298387,17.9280968 C6.38346774,18.1569677 6.30217742,18.6093871 6.53104839,18.9384194 C6.8925,19.4590645 7.78427419,20.2424516 8.97024194,20.2424516 C9.28766129,20.2424516 9.62637097,20.1863226 9.98153226,20.0537419 C10.2220161,19.9642258 10.5229839,19.9545484 10.8791129,20.0237419" id="Fill-26" fill="#2D2319"></path>
            <path d="M8.07464516,15.8654516 C8.16125806,15.8654516 8.24980645,15.8499677 8.33545161,15.8165806 C10.2002903,15.0980323 12.7265806,15.0423871 12.7522258,15.0419032 C13.1523871,15.0341613 13.4712581,14.7036774 13.464,14.3030323 C13.4567419,13.9062581 13.1335161,13.5902903 12.7386774,13.5902903 L12.7256129,13.5902903 C12.6119032,13.5927097 9.92109677,13.6498065 7.81335484,14.4627097 C7.43932258,14.6064194 7.25303226,15.0269032 7.39722581,15.4009355 C7.50851613,15.6888387 7.78287097,15.8654516 8.07464516,15.8654516" id="Fill-28" fill="#2D2319"></path>
            <path d="M11.055871,7.76487097 C10.8211935,7.8693871 10.5197419,7.89890323 10.1616774,7.85051613 C9.20796774,7.72470968 8.37183871,7.94487097 7.74377419,8.48825806 C7.40070968,8.78487097 7.07893548,8.95567742 6.75958065,9.01035484 C5.50683871,9.22470968 4.68087097,9.91664516 4.43312903,10.9593871 C4.34070968,11.3489032 4.58167742,11.7403548 4.97167742,11.8327742 C5.02780645,11.8468065 5.08441935,11.8526129 5.14006452,11.8526129 C5.4686129,11.8526129 5.76619355,11.6280968 5.84554839,11.2947097 C5.88570968,11.1253548 6.00764516,10.6119677 7.00441935,10.4411613 C7.59183871,10.3405161 8.14441935,10.0608387 8.6936129,9.58664516 C9.00329032,9.3176129 9.432,9.21696774 9.97054839,9.28954839 C10.598129,9.37229032 11.1628065,9.30648387 11.6461935,9.09067742 C12.6386129,8.65035484 13.3513548,9.46858065 13.4326452,9.56729032 C13.6818387,9.87890323 14.1352258,9.93116129 14.4487742,9.68293548 C14.7632903,9.43470968 14.8165161,8.97841935 14.5682903,8.66341935 C14.0703871,8.03341935 12.6961935,7.03277419 11.055871,7.76487097" id="Fill-30" fill="#2D2319"></path>
            <g id="Group-34" transform="translate(20.322581, 0.053419)">
                <mask id="mask-6" fill="white">
                    <use xlink:href="#path-5"></use>
                </mask>
                <g id="Clip-33"></g>
                <path d="M5.46203226,3.94679032 C9.67751613,2.25517742 12.6852581,1.94791935 13.7594516,1.89420968 C14.3763871,3.21808065 16.2354194,7.40162903 16.4454194,10.1379194 C16.5847742,11.9495323 15.6886452,13.9948548 14.2660645,15.1101774 C13.4323548,15.7638871 12.0305806,16.4084032 10.0800968,15.7692097 C9.02041935,15.4217903 8.21187097,15.1508226 7.55429032,14.9117903 C7.41154839,14.8464677 7.06993548,14.6727581 7.05348387,13.9048548 C7.01380645,12.0680806 8.80606452,9.19679032 10.5397742,8.31808065 C10.8973548,8.1371129 11.0400968,7.70066129 10.859129,7.34308065 C10.6776774,6.9855 10.2412258,6.84227419 9.88364516,7.02324194 C7.67187097,8.1438871 5.55106452,11.5677581 5.60235484,13.9363065 C5.60332258,13.9846935 5.61009677,14.0292097 5.613,14.076629 C5.30283871,13.9087258 5.013,13.7292097 4.70525806,13.5196935 C3.56283871,12.6830806 2.72332258,11.4584032 4.25864516,8.21404839 C5.433,5.73179032 10.1855806,4.60098387 11.9178387,4.37404839 C12.3155806,4.32179032 12.5957419,3.95791935 12.5434839,3.56066129 C12.4917097,3.16340323 12.126871,2.88082258 11.7310645,2.93453226 C11.4446129,2.97130645 4.69993548,3.88679032 2.9463871,7.59324194 C2.54380645,8.44437097 2.26848387,9.22533871 2.11558065,9.94485484 C2.03429032,9.63953226 1.96848387,9.32937097 1.93848387,9.01243548 C1.7163871,6.67920968 2.90187097,4.97501613 5.46203226,3.94679032 M9.62767742,17.1482419 C10.3070323,17.3713065 10.9825161,17.481629 11.6400968,17.481629 C12.9160645,17.481629 14.1247742,17.0659839 15.1621935,16.2525968 C16.9723548,14.8324355 18.0697742,12.3298548 17.8926774,10.0261452 C17.6202581,6.48130645 14.9773548,1.06630645 14.8650968,0.837435484 C14.7465484,0.595983871 14.504129,0.440177419 14.2360645,0.431951613 C14.0860645,0.42566129 10.5373548,0.345822581 4.92106452,2.60017742 C0.899612903,4.21485484 0.293806452,7.05324194 0.493645161,9.15033871 C0.70316129,11.3485645 1.923,13.3614677 3.8396129,14.6838871 C3.84735484,14.6896935 3.85364516,14.6955 3.8613871,14.7013065 C3.86235484,14.7017903 3.86332258,14.7022742 3.86429032,14.7027581 C3.8696129,14.706629 3.87493548,14.7109839 3.88025806,14.7148548 C5.253,15.6492097 6.27880645,16.0503387 9.62767742,17.1482419" id="Fill-32" fill="#2D2319" mask="url(#mask-6)"></path>
            </g>
            <path d="M31.7165323,13.7216129 C31.338629,13.8551613 31.1407258,14.2698387 31.2742742,14.6477419 C31.3797581,14.9458065 31.6594355,15.1316129 31.9584677,15.1316129 C32.0387903,15.1316129 32.1200806,15.1185484 32.2004032,15.09 C33.9176613,14.4827419 35.0610484,13.4719355 35.5981452,12.0856452 C36.5828226,9.54435484 35.0978226,6.72145161 35.0339516,6.60290323 C34.8447581,6.24967742 34.4058871,6.1166129 34.0531452,6.30580645 C33.6999194,6.49354839 33.5658871,6.9333871 33.753629,7.2866129 C33.7662097,7.31032258 34.9884677,9.65322581 34.2423387,11.5674194 C33.8639516,12.5380645 33.0142742,13.2629032 31.7165323,13.7216129" id="Fill-35" fill="#2D2319"></path>
        </g>
    </g>
</svg>